# xmcd
#
# Track frame offsets: 
#        150
#        12716
#        26969
#        40532
#        53997
#        67452
#        78492
#        91067
#        103085
#        115828
#        129399
#        143765
#        156217
#        170024
#        183145
#        197017
#        210750
#        224850
#        237863
#        251799
#        265398
#        278652
#        291891
#        305679
#        318750
#
# Disc length: 4432 seconds
#
# Revision: 0
# Processed by: cddbd v1.5.2PL0 Copyright (c) Steve Scherf et al.
# Submitted via: ExactAudioCopyFreeDBPlugin 1.0
#
DISCID=77114e19
DTITLE=Dick Thomas and his Nashville Ramblers - Dick Thomas and his Na
DTITLE=shville Ramblers
DYEAR=2001
DGENRE=Country
TTITLE0=Tennessee Local
TTITLE1=Give Me Back My Heart
TTITLE2=One Man's Loss is Another Man's Gain
TTITLE3=The Beaut from Butte
TTITLE4=My Daddy is Only a Picture
TTITLE5=You Better Stop Tellin' Lies About Me
TTITLE6=Memories of France
TTITLE7=Two Car Garage
TTITLE8=My Guitar is My Sweetheart
TTITLE9=Roses Have Thorns (So They Tell Me)
TTITLE10=Can't You Take It Back and Change It For a Boy
TTITLE11=Rosalinda
TTITLE12=Charlotte Belle (Carolina Waltz)
TTITLE13=The Sister of Sioux City Sue
TTITLE14=Foolish Tears
TTITLE15=Sleepy Old Town
TTITLE16=A Cowboy in Khaki
TTITLE17=San Antonio Serenade
TTITLE18=Broken Heart
TTITLE19=You Never Loved Me
TTITLE20=They'll Never Take the Texas Out of Me
TTITLE21=As Long As I Live I Will Love You
TTITLE22=I Don't Want a Million Sweethearts
TTITLE23=Moanin' In The Mornin' Grievin' In The Evenin' Blues
TTITLE24=Rose of the Alamo
EXTD=
EXTT0=
EXTT1=
EXTT2=
EXTT3=
EXTT4=
EXTT5=
EXTT6=
EXTT7=
EXTT8=
EXTT9=
EXTT10=
EXTT11=
EXTT12=
EXTT13=
EXTT14=
EXTT15=
EXTT16=
EXTT17=
EXTT18=
EXTT19=
EXTT20=
EXTT21=
EXTT22=
EXTT23=
EXTT24=
PLAYORDER=
